<?xml version="1.0" encoding="utf-8"?>
<!-- Generator: Adobe Illustrator 16.0.0, SVG Export Plug-In . SVG Version: 6.00 Build 0)  -->
<!DOCTYPE svg PUBLIC "-//W3C//DTD SVG 1.1//EN" "http://www.w3.org/Graphics/SVG/1.1/DTD/svg11.dtd">
<svg version="1.1" id="Layer_1" xmlns="http://www.w3.org/2000/svg" xmlns:xlink="http://www.w3.org/1999/xlink" x="0px" y="0px"
	 width="248.424px" height="69.999px" viewBox="0 0 248.424 69.999" enable-background="new 0 0 248.424 69.999"
	 xml:space="preserve">
<g>
	<g>
		<path fill="#FFFFFF" d="M78.85,14.631c-0.157-0.42-0.157-0.802,0-1.144c0.158-0.289,0.395-0.486,0.711-0.591
			c0.314-0.105,0.631-0.079,0.946,0.079c0.314,0.184,0.552,0.487,0.709,0.907l8.716,25.632h0.158l8.715-25.632
			c0.104-0.42,0.328-0.723,0.669-0.907c0.29-0.131,0.605-0.144,0.946-0.04c0.316,0.105,0.553,0.303,0.711,0.591
			c0.157,0.316,0.17,0.684,0.039,1.104l-9.227,26.775c-0.396,1.209-1.04,1.814-1.933,1.814c-0.921,0-1.552-0.605-1.894-1.814
			L78.85,14.631z"/>
		<path fill="#FFFFFF" d="M124.949,13.842c0.21,0.211,0.315,0.473,0.315,0.789c0,0.29-0.105,0.539-0.315,0.749
			c-0.236,0.237-0.538,0.355-0.907,0.355h-13.959c-0.579,0-1.025,0.185-1.341,0.552c-0.263,0.315-0.395,0.724-0.395,1.223v8.912
			h14.314c0.395,0,0.71,0.105,0.946,0.315c0.21,0.211,0.315,0.473,0.315,0.789c0,0.29-0.105,0.539-0.315,0.749
			c-0.236,0.237-0.552,0.355-0.946,0.355h-14.314v9.977c0,0.473,0.132,0.868,0.395,1.183c0.315,0.368,0.762,0.552,1.341,0.552
			h14.472c0.395,0,0.71,0.105,0.946,0.315c0.211,0.211,0.315,0.474,0.315,0.789c0,0.29-0.104,0.539-0.315,0.75
			c-0.236,0.236-0.552,0.354-0.946,0.354h-14.905c-1.211,0-2.157-0.394-2.84-1.183c-0.604-0.71-0.906-1.577-0.906-2.603V17.352
			c0-1.051,0.302-1.932,0.906-2.642c0.683-0.789,1.629-1.183,2.84-1.183h14.393C124.411,13.526,124.712,13.632,124.949,13.842z"/>
		<path fill="#FFFFFF" d="M132.323,12.856c0.789-0.105,1.393,0.171,1.814,0.828l1.34,1.972l13.842,23.029V13.921
			c0-0.341,0.118-0.618,0.355-0.828c0.236-0.158,0.525-0.236,0.867-0.236s0.631,0.092,0.868,0.276
			c0.262,0.184,0.394,0.447,0.394,0.789v27.604c0,0.894-0.354,1.433-1.064,1.617c-0.71,0.21-1.222,0.04-1.538-0.513l-2.208-3.233
			l-13.368-22.043V41.84c0,0.447-0.132,0.802-0.395,1.065c-0.236,0.237-0.526,0.355-0.867,0.355
			c-0.343-0.027-0.631-0.158-0.868-0.395c-0.236-0.263-0.354-0.604-0.354-1.025V14.434C131.14,13.514,131.534,12.988,132.323,12.856
			z"/>
		<path fill="#FFFFFF" d="M168.759,13.526c4.312,0,7.689,1.446,10.135,4.338c2.287,2.656,3.431,6.047,3.431,10.174
			s-1.144,7.519-3.431,10.173c-2.445,2.893-5.823,4.338-10.135,4.338h-5.639c-1.21,0-2.156-0.394-2.839-1.183
			c-0.604-0.71-0.906-1.577-0.906-2.603V17.352c0-1.051,0.302-1.932,0.906-2.642c0.683-0.789,1.629-1.183,2.839-1.183H168.759z
			 M168.759,40.342c3.523,0,6.283-1.223,8.282-3.667c1.865-2.234,2.799-5.113,2.799-8.636c0-3.549-0.934-6.441-2.799-8.676
			c-1.999-2.418-4.759-3.628-8.282-3.628h-5.205c-0.579,0-1.024,0.185-1.341,0.552c-0.263,0.315-0.395,0.724-0.395,1.223v21.097
			c0,0.473,0.132,0.868,0.395,1.183c0.316,0.368,0.762,0.552,1.341,0.552H168.759z"/>
		<path fill="#FFFFFF" d="M210.284,17.51c2.103,2.76,3.154,6.27,3.154,10.529c0,4.258-1.052,7.755-3.154,10.489
			c-2.366,3.129-5.705,4.692-10.016,4.692c-4.339,0-7.689-1.563-10.057-4.692c-2.051-2.734-3.076-6.231-3.076-10.489
			c0-4.259,1.025-7.769,3.076-10.529c2.367-3.102,5.718-4.653,10.057-4.653C204.579,12.856,207.917,14.408,210.284,17.51z
			 M192.065,18.929c-1.656,2.288-2.483,5.324-2.483,9.11c0,3.759,0.827,6.796,2.483,9.109c1.866,2.603,4.601,3.904,8.203,3.904
			c3.574,0,6.309-1.301,8.201-3.904c1.683-2.339,2.524-5.376,2.524-9.109c0-3.759-0.842-6.796-2.524-9.11
			c-1.893-2.602-4.627-3.904-8.201-3.904C196.666,15.025,193.931,16.327,192.065,18.929z"/>
		<path fill="#FFFFFF" d="M232.248,13.526c2.551,0,4.588,0.829,6.112,2.484c1.367,1.525,2.051,3.352,2.051,5.481
			c0,1.604-0.421,3.023-1.262,4.259c-0.842,1.209-1.972,2.064-3.391,2.563c0.893,0.079,1.681,0.46,2.365,1.144
			c0.814,0.789,1.223,1.827,1.223,3.115c0,2.051,0.092,3.825,0.276,5.323c0.184,1.367,0.446,2.524,0.788,3.47
			c0.158,0.421,0.158,0.803,0,1.144c-0.157,0.29-0.408,0.5-0.749,0.631c-0.315,0.104-0.632,0.104-0.946,0
			c-0.343-0.132-0.579-0.369-0.71-0.71c-0.395-1.051-0.696-2.458-0.907-4.22c-0.157-1.55-0.236-3.312-0.236-5.284
			c0-1.104-0.474-1.972-1.42-2.603c-0.867-0.604-1.932-0.907-3.194-0.907h-10.213v12.461c0,0.421-0.132,0.749-0.395,0.986
			c-0.236,0.237-0.513,0.355-0.828,0.355c-0.342,0-0.631-0.118-0.867-0.355s-0.354-0.565-0.354-0.986V17.352
			c0-1.051,0.302-1.932,0.906-2.642c0.684-0.789,1.63-1.183,2.839-1.183H232.248z M236.428,25.396
			c0.999-1.104,1.498-2.406,1.498-3.904c0-1.524-0.499-2.839-1.498-3.943c-1.131-1.209-2.616-1.814-4.456-1.814h-8.202
			c-0.578,0-1.025,0.185-1.342,0.552c-0.262,0.315-0.394,0.724-0.394,1.223v9.74h9.938C233.812,27.25,235.297,26.632,236.428,25.396
			z"/>
	</g>
	<g>
		<g>
			<path fill="#F8981F" d="M36.512,40.31L5.718,21.918l30.794-18.4l30.79,18.394L36.512,40.31z M10.202,21.918l26.311,15.714
				l26.311-15.72L36.512,6.195L10.202,21.918z M10.202,21.918"/>
			<path fill="#F8981F" d="M36.512,51.805L7.366,34.395l1.182-1.971l27.965,16.704l27.961-16.704l1.178,1.971L36.512,51.805z
				 M36.512,51.805"/>
			<path fill="#F8981F" d="M36.512,63.3L7.366,45.889l1.182-1.97l27.965,16.704l27.961-16.704l1.178,1.97L36.512,63.3z M36.512,63.3
				"/>
		</g>
	</g>
	<g>
		<path fill="#ABABAB" d="M79.352,57.734c0-0.704,0.135-1.336,0.404-1.896c0.271-0.561,0.651-0.998,1.145-1.311
			c0.492-0.313,1.05-0.47,1.672-0.47c0.617,0,1.171,0.152,1.661,0.456c0.49,0.304,0.873,0.735,1.147,1.294
			c0.274,0.558,0.414,1.187,0.419,1.886v0.327c0,0.708-0.134,1.342-0.402,1.9c-0.268,0.559-0.647,0.994-1.141,1.308
			c-0.492,0.313-1.05,0.47-1.671,0.47c-0.622,0-1.18-0.154-1.672-0.463c-0.493-0.309-0.875-0.741-1.147-1.297
			s-0.411-1.182-0.415-1.876V57.734z M79.719,58.02c0,0.613,0.121,1.175,0.364,1.686s0.581,0.909,1.015,1.195
			c0.434,0.286,0.93,0.429,1.488,0.429c0.84,0,1.523-0.315,2.053-0.947c0.528-0.631,0.793-1.443,0.793-2.438v-0.211
			c0-0.604-0.122-1.162-0.367-1.675s-0.585-0.914-1.019-1.202c-0.434-0.289-0.925-0.433-1.474-0.433c-0.84,0-1.525,0.32-2.057,0.96
			s-0.797,1.446-0.797,2.417V58.02z"/>
		<path fill="#ABABAB" d="M92.541,54.561h-2.895v7h-0.367v-7h-2.744v-0.368h6.006V54.561z"/>
		<path fill="#ABABAB" d="M96.98,57.87c0-1.167,0.233-2.094,0.701-2.781c0.468-0.688,1.114-1.032,1.94-1.032
			c0.563,0,1.03,0.152,1.403,0.456v-3.411h0.367v3.404c0.358-0.299,0.821-0.449,1.39-0.449c0.813,0,1.452,0.335,1.92,1.004
			s0.708,1.576,0.722,2.72v0.231c0,1.144-0.235,2.045-0.705,2.704s-1.11,0.987-1.924,0.987c-0.554,0-1.021-0.141-1.402-0.422v3.112
			h-0.367v-3.112c-0.391,0.282-0.863,0.422-1.417,0.422c-0.771,0-1.392-0.301-1.858-0.902c-0.468-0.602-0.723-1.436-0.763-2.502
			L96.98,57.87z M97.361,58.013c0,1.058,0.196,1.876,0.589,2.455c0.393,0.579,0.943,0.868,1.651,0.868c0.5,0,0.927-0.123,1.28-0.368
			l0.144-0.102v-5.863c-0.259-0.386-0.729-0.579-1.41-0.579c-0.699,0-1.249,0.304-1.651,0.913
			C97.563,55.946,97.361,56.838,97.361,58.013z M105.056,57.87c0-1.058-0.198-1.896-0.596-2.516c-0.396-0.62-0.954-0.93-1.672-0.93
			c-0.681,0-1.146,0.188-1.396,0.565v5.883c0.386,0.309,0.855,0.463,1.409,0.463c0.723,0,1.278-0.293,1.669-0.878
			C104.861,59.872,105.056,59.01,105.056,57.87z"/>
		<path fill="#ABABAB" d="M109.604,60.989l0.048-0.136l2.547-6.66h0.408l-3.296,8.648l-0.163,0.409
			c-0.354,0.858-0.939,1.287-1.757,1.287c-0.263,0-0.444-0.025-0.545-0.076l-0.007-0.353c0.146,0.041,0.312,0.061,0.497,0.061
			c0.386,0,0.706-0.112,0.961-0.336c0.254-0.225,0.474-0.59,0.66-1.097l0.449-1.216l-2.935-7.327h0.401L109.604,60.989z"/>
		<path fill="#ABABAB" d="M119.309,61.561h-0.374v-3.602h-4.556v3.602h-0.368v-7.368h0.368v3.398h4.556v-3.398h0.374V61.561z"/>
		<path fill="#ABABAB" d="M121.364,61.193l0.259-0.347c0.668-0.913,1.056-2.236,1.165-3.97l0.143-2.683h3.956v7h0.586v2.533h-0.367
			v-2.166h-5.932v2.166h-0.3v-2.533H121.364z M121.814,61.193h4.705v-6.632h-3.241l-0.13,2.438
			C123.021,58.846,122.577,60.245,121.814,61.193z"/>
		<path fill="#ABABAB" d="M133.976,61.561c-0.091-0.313-0.136-0.763-0.136-1.348c-0.291,0.472-0.688,0.837-1.191,1.096
			s-1.074,0.388-1.71,0.388c-0.681,0-1.229-0.185-1.644-0.555c-0.416-0.37-0.624-0.852-0.624-1.447c0-0.676,0.306-1.218,0.916-1.624
			s1.422-0.614,2.435-0.623h1.818v-1.076c0-0.617-0.194-1.096-0.582-1.437c-0.389-0.34-0.943-0.511-1.665-0.511
			c-0.672,0-1.232,0.172-1.682,0.518c-0.45,0.345-0.675,0.771-0.675,1.28l-0.367-0.014c0-0.599,0.263-1.108,0.79-1.525
			c0.526-0.417,1.171-0.626,1.934-0.626c0.794,0,1.425,0.199,1.893,0.596c0.468,0.397,0.708,0.957,0.722,1.679v3.521
			c0,0.808,0.063,1.357,0.191,1.647v0.062H133.976z M130.938,61.33c0.69,0,1.284-0.154,1.781-0.463
			c0.497-0.309,0.87-0.743,1.12-1.301v-1.75h-1.702c-1.054,0-1.859,0.209-2.418,0.626c-0.454,0.34-0.681,0.765-0.681,1.273
			c0,0.449,0.18,0.831,0.538,1.144C129.936,61.173,130.39,61.33,130.938,61.33z"/>
		<path fill="#ABABAB" d="M140.493,61.002l3.35-6.809h0.443v7.368h-0.375v-6.66l-3.275,6.66h-0.286l-3.343-6.823v6.823h-0.368
			v-7.368h0.504L140.493,61.002z"/>
		<path fill="#ABABAB" d="M149.277,61.697c-0.595,0-1.141-0.16-1.638-0.48c-0.497-0.32-0.887-0.759-1.168-1.318
			c-0.281-0.558-0.422-1.178-0.422-1.859v-0.306c0-0.681,0.136-1.305,0.408-1.873c0.272-0.568,0.646-1.01,1.124-1.328
			c0.477-0.318,0.996-0.477,1.559-0.477c0.822,0,1.494,0.293,2.016,0.878c0.522,0.585,0.783,1.355,0.783,2.308v0.388h-5.522v0.401
			c0,0.598,0.126,1.152,0.378,1.662s0.6,0.91,1.042,1.2s0.923,0.435,1.44,0.435c0.494,0,0.916-0.083,1.263-0.247
			c0.348-0.165,0.655-0.418,0.923-0.761l0.259,0.184C151.172,61.3,150.357,61.697,149.277,61.697z M149.141,54.425
			c-0.717,0-1.325,0.267-1.824,0.8c-0.5,0.533-0.793,1.213-0.879,2.039h5.135v-0.088c0-0.5-0.105-0.963-0.317-1.393
			c-0.211-0.429-0.501-0.763-0.871-1.001S149.6,54.425,149.141,54.425z"/>
		<path fill="#ABABAB" d="M158.953,61.561h-0.374v-3.602h-4.556v3.602h-0.368v-7.368h0.368v3.398h4.556v-3.398h0.374V61.561z"/>
		<path fill="#ABABAB" d="M166.396,54.561h-2.895v7h-0.367v-7h-2.744v-0.368h6.006V54.561z"/>
		<path fill="#ABABAB" d="M172.489,61.561c-0.091-0.313-0.136-0.763-0.136-1.348c-0.291,0.472-0.688,0.837-1.191,1.096
			s-1.074,0.388-1.71,0.388c-0.681,0-1.229-0.185-1.644-0.555c-0.416-0.37-0.624-0.852-0.624-1.447c0-0.676,0.306-1.218,0.916-1.624
			s1.422-0.614,2.435-0.623h1.818v-1.076c0-0.617-0.194-1.096-0.582-1.437c-0.389-0.34-0.943-0.511-1.665-0.511
			c-0.672,0-1.232,0.172-1.682,0.518c-0.45,0.345-0.675,0.771-0.675,1.28l-0.367-0.014c0-0.599,0.263-1.108,0.79-1.525
			c0.526-0.417,1.171-0.626,1.934-0.626c0.794,0,1.425,0.199,1.893,0.596c0.468,0.397,0.708,0.957,0.722,1.679v3.521
			c0,0.808,0.063,1.357,0.191,1.647v0.062H172.489z M169.452,61.33c0.69,0,1.284-0.154,1.781-0.463
			c0.497-0.309,0.87-0.743,1.12-1.301v-1.75h-1.702c-1.054,0-1.859,0.209-2.418,0.626c-0.454,0.34-0.681,0.765-0.681,1.273
			c0,0.449,0.18,0.831,0.538,1.144C168.449,61.173,168.903,61.33,169.452,61.33z"/>
		<path fill="#ABABAB" d="M178.148,61.193l0.259-0.347c0.668-0.913,1.056-2.236,1.165-3.97l0.143-2.683h3.956v7h0.586v2.533h-0.367
			v-2.166h-5.932v2.166h-0.3v-2.533H178.148z M178.599,61.193h4.705v-6.632h-3.241l-0.13,2.438
			C179.806,58.846,179.361,60.245,178.599,61.193z"/>
		<path fill="#ABABAB" d="M185.441,57.734c0-0.704,0.135-1.336,0.404-1.896c0.271-0.561,0.651-0.998,1.145-1.311
			c0.492-0.313,1.05-0.47,1.672-0.47c0.617,0,1.171,0.152,1.661,0.456c0.49,0.304,0.873,0.735,1.147,1.294
			c0.274,0.558,0.414,1.187,0.419,1.886v0.327c0,0.708-0.134,1.342-0.402,1.9c-0.268,0.559-0.647,0.994-1.141,1.308
			c-0.492,0.313-1.05,0.47-1.671,0.47c-0.622,0-1.18-0.154-1.672-0.463c-0.493-0.309-0.875-0.741-1.147-1.297
			s-0.411-1.182-0.415-1.876V57.734z M185.809,58.02c0,0.613,0.121,1.175,0.364,1.686s0.581,0.909,1.015,1.195
			c0.434,0.286,0.93,0.429,1.488,0.429c0.84,0,1.523-0.315,2.053-0.947c0.528-0.631,0.793-1.443,0.793-2.438v-0.211
			c0-0.604-0.122-1.162-0.367-1.675s-0.585-0.914-1.019-1.202c-0.434-0.289-0.925-0.433-1.474-0.433c-0.84,0-1.525,0.32-2.057,0.96
			s-0.797,1.446-0.797,2.417V58.02z"/>
		<path fill="#ABABAB" d="M198.726,57.966h-1.348v3.595h-0.375v-7.368h0.375v3.405h1.416l2.922-3.405h0.53l-3.132,3.613l3.562,3.755
			h-0.552L198.726,57.966z"/>
		<path fill="#ABABAB" d="M209.561,57.945c0,1.148-0.248,2.061-0.742,2.737c-0.495,0.676-1.169,1.015-2.022,1.015
			c-0.559,0-1.056-0.114-1.491-0.34c-0.436-0.227-0.776-0.541-1.021-0.94v3.977h-0.368v-10.2h0.368v1.314
			c0.254-0.467,0.597-0.826,1.028-1.076c0.431-0.25,0.921-0.375,1.471-0.375c0.862,0,1.541,0.33,2.036,0.991
			c0.494,0.661,0.742,1.588,0.742,2.782V57.945z M209.186,57.802c0-1.058-0.21-1.885-0.63-2.482
			c-0.42-0.597-1.009-0.896-1.767-0.896c-0.617,0-1.142,0.16-1.573,0.48c-0.431,0.32-0.742,0.78-0.933,1.379v3.446
			c0.19,0.508,0.503,0.902,0.937,1.181s0.961,0.419,1.583,0.419c0.753,0,1.339-0.3,1.757-0.899
			C208.977,59.832,209.186,58.956,209.186,57.802z"/>
		<path fill="#ABABAB" d="M211.004,57.734c0-0.704,0.135-1.336,0.404-1.896c0.271-0.561,0.651-0.998,1.145-1.311
			c0.492-0.313,1.05-0.47,1.672-0.47c0.617,0,1.171,0.152,1.661,0.456c0.49,0.304,0.873,0.735,1.147,1.294
			c0.274,0.558,0.414,1.187,0.419,1.886v0.327c0,0.708-0.134,1.342-0.402,1.9c-0.268,0.559-0.647,0.994-1.141,1.308
			c-0.492,0.313-1.05,0.47-1.671,0.47c-0.622,0-1.18-0.154-1.672-0.463c-0.493-0.309-0.875-0.741-1.147-1.297
			s-0.411-1.182-0.415-1.876V57.734z M211.371,58.02c0,0.613,0.121,1.175,0.364,1.686s0.581,0.909,1.015,1.195
			c0.434,0.286,0.93,0.429,1.488,0.429c0.84,0,1.523-0.315,2.053-0.947c0.528-0.631,0.793-1.443,0.793-2.438v-0.211
			c0-0.604-0.122-1.162-0.367-1.675s-0.585-0.914-1.019-1.202c-0.434-0.289-0.925-0.433-1.474-0.433c-0.84,0-1.525,0.32-2.057,0.96
			s-0.797,1.446-0.797,2.417V58.02z"/>
		<path fill="#ABABAB" d="M219.298,61.561v-7.368h2.533c0.895,0,1.578,0.162,2.053,0.487s0.712,0.798,0.712,1.42
			c0,0.408-0.126,0.765-0.378,1.069s-0.612,0.508-1.079,0.613h0.007c0.499,0.055,0.919,0.25,1.26,0.585
			c0.34,0.336,0.511,0.736,0.511,1.199c0,0.631-0.233,1.121-0.698,1.471c-0.466,0.35-1.116,0.524-1.951,0.524H219.298z
			 M219.666,57.646h2.301c0.745,0,1.308-0.132,1.689-0.396c0.381-0.264,0.571-0.655,0.571-1.174c0-0.528-0.204-0.912-0.612-1.153
			c-0.409-0.241-1.004-0.362-1.784-0.362h-2.165V57.646z M219.666,58.013v3.18h2.635c0.704,0,1.255-0.141,1.654-0.422
			c0.399-0.281,0.6-0.681,0.6-1.198c0-0.463-0.203-0.839-0.609-1.127s-0.961-0.433-1.665-0.433H219.666z"/>
		<path fill="#ABABAB" d="M232.167,54.193v7.368h-0.374v-7h-3.527l-0.144,3.449c-0.072,1.313-0.248,2.231-0.527,2.754
			s-0.726,0.788-1.338,0.797h-0.259v-0.368h0.307c0.463-0.018,0.802-0.261,1.018-0.728c0.216-0.467,0.357-1.247,0.426-2.34
			l0.163-3.932H232.167z"/>
		<path fill="#ABABAB" d="M239.434,54.193h0.374v7.368h-0.374v-6.714l-4.556,6.714h-0.368v-7.368h0.368v6.714L239.434,54.193z"/>
	</g>
</g>
</svg>
