<?xml version="1.0" encoding="utf-8"?>
<!-- Generator: Adobe Illustrator 16.0.0, SVG Export Plug-In . SVG Version: 6.00 Build 0)  -->
<!DOCTYPE svg PUBLIC "-//W3C//DTD SVG 1.1//EN" "http://www.w3.org/Graphics/SVG/1.1/DTD/svg11.dtd">
<svg version="1.1" id="Layer_1" xmlns="http://www.w3.org/2000/svg" xmlns:xlink="http://www.w3.org/1999/xlink" x="0px" y="0px"
	 width="234.017px" height="45.422px" viewBox="0 0 234.017 45.422" enable-background="new 0 0 234.017 45.422"
	 xml:space="preserve">
<g>
	<g>
		<circle fill="none" stroke="#DDDDDD" stroke-miterlimit="10" cx="162.72" cy="21.179" r="18.5"/>
		<g>
			<path fill="#FFFFFF" d="M159.923,22.416h2.93c-0.514,1.454-1.908,2.497-3.539,2.485c-1.979-0.016-3.615-1.598-3.691-3.576
				c-0.082-2.119,1.619-3.869,3.721-3.869c0.959,0,1.836,0.365,2.498,0.966c0.156,0.142,0.395,0.143,0.549-0.002l1.076-1.013
				c0.168-0.159,0.17-0.427,0.002-0.585c-1.049-0.993-2.457-1.612-4.006-1.643c-3.309-0.064-6.098,2.647-6.119,5.956
				c-0.023,3.334,2.67,6.043,6,6.043c3.199,0,5.814-2.507,5.988-5.662c0.006-0.04,0.01-1.378,0.01-1.378h-5.418
				c-0.223,0-0.402,0.181-0.402,0.401v1.475C159.521,22.235,159.7,22.416,159.923,22.416z"/>
			<path fill="#FFFFFF" d="M170.304,20.272v-1.439c0-0.194-0.156-0.353-0.352-0.353h-1.211c-0.195,0-0.354,0.158-0.354,0.353v1.439
				h-1.439c-0.193,0-0.352,0.158-0.352,0.352v1.213c0,0.194,0.158,0.352,0.352,0.352h1.439v1.439c0,0.195,0.158,0.353,0.354,0.353
				h1.211c0.195,0,0.352-0.157,0.352-0.353v-1.439h1.439c0.195,0,0.354-0.157,0.354-0.352v-1.213c0-0.193-0.158-0.352-0.354-0.352
				H170.304L170.304,20.272z"/>
		</g>
	</g>
	<g>
		<circle fill="none" stroke="#DDDDDD" stroke-miterlimit="10" cx="68.718" cy="21.179" r="18.5"/>
		<g>
			<g>
				<path fill="#FFFFFF" d="M67.735,25.266c-1.55-0.161-2.949-0.543-4.146-1.479c-0.148-0.116-0.303-0.229-0.438-0.359
					c-0.525-0.502-0.576-1.078-0.164-1.672c0.357-0.509,0.952-0.645,1.571-0.353c0.119,0.056,0.234,0.127,0.343,0.202
					c2.229,1.533,5.294,1.575,7.532,0.07c0.223-0.172,0.459-0.31,0.734-0.38c0.535-0.138,1.033,0.059,1.318,0.526
					c0.328,0.534,0.326,1.056-0.078,1.469c-0.619,0.637-1.363,1.096-2.191,1.416c-0.783,0.305-1.641,0.457-2.488,0.559
					c0.129,0.139,0.188,0.207,0.27,0.288c1.152,1.157,2.307,2.31,3.457,3.47c0.391,0.396,0.471,0.886,0.256,1.346
					c-0.234,0.503-0.762,0.834-1.279,0.798c-0.328-0.022-0.582-0.185-0.811-0.413c-0.869-0.875-1.754-1.733-2.605-2.625
					c-0.246-0.259-0.365-0.21-0.586,0.015c-0.873,0.899-1.762,1.787-2.655,2.667c-0.4,0.396-0.879,0.468-1.345,0.242
					c-0.494-0.24-0.809-0.744-0.784-1.252c0.017-0.344,0.186-0.605,0.421-0.842c1.139-1.138,2.276-2.279,3.412-3.419
					C67.554,25.464,67.626,25.383,67.735,25.266z"/>
				<path fill="#FFFFFF" d="M68.681,21.302c-2.767-0.01-5.034-2.302-5.019-5.073c0.016-2.8,2.285-5.058,5.077-5.05
					c2.799,0.008,5.045,2.297,5.031,5.127C73.757,19.07,71.474,21.312,68.681,21.302z M71.192,16.236
					c-0.006-1.376-1.1-2.471-2.473-2.472c-1.385-0.002-2.489,1.113-2.479,2.501c0.01,1.37,1.115,2.458,2.49,2.452
					C70.106,18.713,71.196,17.612,71.192,16.236z"/>
			</g>
		</g>
	</g>
	<g>
		<circle fill="none" stroke="#DDDDDD" stroke-miterlimit="10" cx="209.72" cy="21.179" r="18.5"/>
		<path fill="#FFFFFF" d="M204.991,21.831h2.191v9.025c0,0.178,0.145,0.322,0.322,0.322h3.717c0.18,0,0.324-0.145,0.324-0.322
			v-8.982h2.52c0.164,0,0.301-0.123,0.32-0.287l0.383-3.322c0.01-0.092-0.02-0.183-0.078-0.252c-0.063-0.067-0.15-0.107-0.242-0.107
			h-2.902v-2.083c0-0.628,0.338-0.946,1.004-0.946c0.096,0,1.898,0,1.898,0c0.18,0,0.322-0.145,0.322-0.322v-3.05
			c0-0.179-0.143-0.323-0.322-0.323h-2.615c-0.018,0-0.059-0.002-0.121-0.002c-0.453,0-2.029,0.089-3.277,1.236
			c-1.379,1.27-1.188,2.791-1.143,3.055v2.436h-2.301c-0.18,0-0.322,0.145-0.322,0.322v3.281
			C204.669,21.687,204.812,21.831,204.991,21.831z"/>
	</g>
	<g>
		<circle fill="none" stroke="#DDDDDD" stroke-miterlimit="10" cx="21.719" cy="21.179" r="18.5"/>
		<path fill="#FFFFFF" d="M31.031,15.04c-0.428,0.189-0.871,0.339-1.326,0.447c0.502-0.477,0.879-1.072,1.092-1.738l0,0
			c0.061-0.189-0.146-0.354-0.318-0.252l0,0c-0.633,0.375-1.314,0.657-2.027,0.837c-0.041,0.011-0.084,0.016-0.127,0.016
			c-0.129,0-0.256-0.048-0.354-0.136c-0.758-0.667-1.732-1.035-2.744-1.035c-0.438,0-0.881,0.068-1.314,0.203
			c-1.344,0.417-2.383,1.525-2.707,2.895c-0.123,0.513-0.156,1.027-0.1,1.526c0.008,0.058-0.02,0.098-0.037,0.116
			c-0.027,0.033-0.07,0.053-0.113,0.053c-0.006,0-0.01,0-0.016-0.001c-2.943-0.273-5.598-1.691-7.473-3.993l0,0
			c-0.096-0.117-0.279-0.103-0.355,0.028l0,0c-0.367,0.63-0.563,1.351-0.563,2.085c0,1.124,0.453,2.184,1.238,2.956
			c-0.332-0.078-0.65-0.202-0.947-0.366l0,0c-0.143-0.08-0.32,0.022-0.322,0.187l0,0c-0.02,1.67,0.957,3.156,2.422,3.825
			c-0.029,0.001-0.059,0.001-0.088,0.001c-0.232,0-0.467-0.022-0.699-0.066l0,0c-0.162-0.03-0.297,0.122-0.248,0.279l0,0
			c0.477,1.484,1.754,2.578,3.285,2.826c-1.271,0.853-2.748,1.302-4.287,1.302h-0.48c-0.146,0-0.271,0.097-0.311,0.239
			c-0.035,0.142,0.031,0.29,0.158,0.363c1.732,1.009,3.711,1.542,5.719,1.542c1.76,0,3.402-0.349,4.889-1.037
			c1.361-0.631,2.564-1.532,3.574-2.68c0.943-1.068,1.68-2.303,2.191-3.667c0.486-1.301,0.744-2.688,0.744-4.014v-0.063
			c0-0.213,0.096-0.413,0.264-0.549c0.637-0.518,1.191-1.127,1.648-1.811l0,0C31.42,15.179,31.229,14.952,31.031,15.04L31.031,15.04
			z"/>
	</g>
	<g>
		<circle fill="none" stroke="#DDDDDD" stroke-miterlimit="10" cx="115.72" cy="21.179" r="18.5"/>
		<path fill="#FFFFFF" d="M123.366,22.81c0.705,0.686,1.447,1.332,2.078,2.088c0.279,0.336,0.543,0.684,0.744,1.072
			c0.287,0.555,0.027,1.164-0.469,1.197l-3.092-0.002c-0.795,0.068-1.432-0.254-1.967-0.799c-0.426-0.436-0.822-0.898-1.234-1.35
			c-0.168-0.184-0.344-0.357-0.555-0.494c-0.422-0.273-0.787-0.189-1.031,0.25c-0.242,0.447-0.299,0.943-0.324,1.441
			c-0.031,0.727-0.252,0.918-0.982,0.951c-1.563,0.074-3.045-0.162-4.42-0.949c-1.215-0.695-2.156-1.676-2.977-2.785
			c-1.594-2.16-2.816-4.535-3.914-6.979c-0.246-0.549-0.066-0.844,0.541-0.854c1.008-0.021,2.016-0.02,3.025-0.002
			c0.408,0.006,0.68,0.24,0.838,0.627c0.545,1.342,1.213,2.617,2.049,3.799c0.225,0.314,0.451,0.629,0.777,0.85
			c0.355,0.246,0.629,0.166,0.797-0.234c0.107-0.252,0.154-0.525,0.178-0.795c0.08-0.934,0.092-1.863-0.049-2.793
			c-0.088-0.58-0.412-0.955-0.992-1.064c-0.293-0.057-0.25-0.166-0.105-0.336c0.246-0.289,0.48-0.471,0.945-0.471h3.492
			c0.549,0.109,0.672,0.355,0.746,0.908l0.002,3.879c-0.004,0.213,0.109,0.848,0.494,0.99c0.309,0.102,0.512-0.146,0.697-0.342
			c0.836-0.887,1.432-1.936,1.965-3.021c0.238-0.477,0.441-0.973,0.637-1.469c0.146-0.367,0.377-0.547,0.789-0.541l3.361,0.004
			c0.1,0,0.201,0.002,0.297,0.018c0.566,0.098,0.721,0.342,0.547,0.893c-0.275,0.869-0.813,1.592-1.336,2.316
			c-0.561,0.777-1.16,1.525-1.717,2.305C122.692,21.831,122.733,22.19,123.366,22.81L123.366,22.81z"/>
	</g>
</g>
</svg>
